<?xml version="1.0" encoding="UTF-8"?>
<svg id="Livello_1" data-name="Livello 1" xmlns="http://www.w3.org/2000/svg" xmlns:xlink="http://www.w3.org/1999/xlink" viewBox="0 0 811 901.88">
  <defs>
    <style>
      .cls-1, .cls-2, .cls-3 {
        fill: none;
      }

      .cls-4 {
        clip-path: url(#clippath);
      }

      .cls-5 {
        fill: #fff;
      }

      .cls-6, .cls-7 {
        fill: #6fc9ec;
      }

      .cls-8 {
        clip-path: url(#clippath-1);
      }

      .cls-9 {
        clip-path: url(#clippath-4);
      }

      .cls-10 {
        clip-path: url(#clippath-3);
      }

      .cls-11 {
        clip-path: url(#clippath-2);
      }

      .cls-7 {
        stroke: #1d71b8;
      }

      .cls-7, .cls-2 {
        stroke-miterlimit: 10;
      }

      .cls-2 {
        stroke: #1d1d1b;
      }

      .cls-3 {
        stroke: #6fc9ec;
        stroke-miterlimit: 11.34;
        stroke-width: 1.12px;
      }

      .cls-12 {
        opacity: .94;
      }
    </style>
    <clipPath id="clippath">
      <circle class="cls-2" cx="405.5" cy="496.38" r="405"/>
    </clipPath>
    <clipPath id="clippath-1">
      <rect class="cls-1" x="13.28" width="784.44" height="784.44"/>
    </clipPath>
    <clipPath id="clippath-2">
      <rect class="cls-1" x="13.28" width="784.44" height="784.44"/>
    </clipPath>
    <clipPath id="clippath-3">
      <rect class="cls-1" x="13.28" width="784.44" height="784.44"/>
    </clipPath>
    <clipPath id="clippath-4">
      <rect class="cls-1" x="219.28" y="146.21" width="406.13" height="544.49"/>
    </clipPath>
  </defs>
  <g class="cls-4">
    <rect class="cls-5" x=".5" y="91.38" width="810" height="810"/>
    <g>
      <path class="cls-7" d="M108.61,705.14h23.06c10.79,0,18.09,7.92,18.09,19.1s-7.3,19.26-18.09,19.26h-9.47v17.16h-13.59v-55.52Zm20.27,26.71c4.74,0,7.07-3.18,7.07-7.61s-2.33-7.45-6.83-7.45h-6.91v15.06h6.68Z"/>
      <path class="cls-7" d="M172.43,749.01h-17.32l-3.34,11.65h-13.98l18.87-55.52h14.29l18.87,55.52h-13.98l-3.42-11.65Zm-8.7-31.21s-1.24,6.06-2.25,9.55l-3.18,10.79h10.95l-3.11-10.79c-1.01-3.49-2.25-9.55-2.25-9.55h-.16Z"/>
      <path class="cls-7" d="M188.67,705.14h19.33c5.67,0,8.39,.39,10.79,1.32,6.29,2.41,10.25,8.08,10.25,16.15,0,5.9-2.8,12.35-8.31,15.14v.16s.78,1.01,2.1,3.34l10.79,19.41h-15.14l-9.86-18.71h-6.37v18.71h-13.59v-55.52Zm19.49,25.16c4.35,0,7.07-2.41,7.07-6.83,0-4.19-1.55-6.68-8.39-6.68h-4.58v13.51h5.9Z"/>
      <path class="cls-7" d="M232.43,705.14h19.33c5.67,0,8.39,.39,10.79,1.32,6.29,2.41,10.25,8.08,10.25,16.15,0,5.9-2.8,12.35-8.31,15.14v.16s.78,1.01,2.1,3.34l10.79,19.41h-15.14l-9.86-18.71h-6.37v18.71h-13.59v-55.52Zm19.49,25.16c4.35,0,7.07-2.41,7.07-6.83,0-4.19-1.55-6.68-8.39-6.68h-4.58v13.51h5.9Z"/>
      <path class="cls-7" d="M300.34,704.2c16.77,0,29.04,12.42,29.04,28.34s-12.27,29.04-29.04,29.04-29.04-12.73-29.04-29.04,12.27-28.34,29.04-28.34Zm0,44.96c8.31,0,14.99-7.14,14.99-16.62s-6.68-15.92-14.99-15.92-14.99,6.83-14.99,15.92,6.68,16.62,14.99,16.62Z"/>
      <path class="cls-7" d="M340.98,716.78h-16.85v-11.65h47.29v11.65h-16.85v43.87h-13.59v-43.87Z"/>
      <path class="cls-7" d="M393.53,743.34s6.29,5.75,13.28,5.75c2.8,0,5.82-1.09,5.82-4.43,0-6.6-25-6.37-25-23.45,0-10.25,8.62-17,19.64-17,11.96,0,17.86,6.29,17.86,6.29l-5.75,11.1s-5.59-4.89-12.27-4.89c-2.8,0-5.9,1.24-5.9,4.35,0,6.99,25,5.74,25,23.29,0,9.24-7.07,17.24-19.57,17.24s-20.27-7.92-20.27-7.92l7.14-10.33Z"/>
      <path class="cls-7" d="M425.42,705.14h34.79v11.65h-21.2v10.09h16.93v11.65h-16.93v10.48h22.28v11.65h-35.87v-55.52Z"/>
      <path class="cls-7" d="M484.42,704.2c13.74,0,20.81,7.84,20.81,7.84l-6.29,10.25s-6.21-5.67-13.9-5.67c-10.64,0-15.68,7.84-15.68,15.84s5.44,16.69,15.68,16.69c8.39,0,14.75-6.83,14.75-6.83l6.99,9.94s-7.84,9.32-22.36,9.32c-17.39,0-29.12-12.34-29.12-28.81s12.42-28.57,29.12-28.57Z"/>
      <path class="cls-7" d="M503.2,705.14h13.59v35.1c0,5.82,3.8,8.93,9.63,8.93s9.63-3.11,9.63-8.93v-35.1h13.59v35.1c0,12.5-9.16,21.35-23.14,21.35s-23.29-8.85-23.29-21.35v-35.1Z"/>
      <path class="cls-7" d="M549.02,705.14h19.33c5.67,0,8.39,.39,10.79,1.32,6.29,2.41,10.25,8.08,10.25,16.15,0,5.9-2.8,12.35-8.31,15.14v.16s.78,1.01,2.1,3.34l10.79,19.41h-15.14l-9.86-18.71h-6.37v18.71h-13.59v-55.52Zm19.49,25.16c4.35,0,7.07-2.41,7.07-6.83,0-4.19-1.55-6.68-8.39-6.68h-4.58v13.51h5.9Z"/>
      <path class="cls-7" d="M592.77,705.14h13.59v55.52h-13.59v-55.52Z"/>
      <path class="cls-7" d="M622.68,716.78h-16.85v-11.65h47.29v11.65h-16.85v43.87h-13.59v-43.87Z"/>
      <path class="cls-7" d="M670.48,737.9l-18.32-32.77h15.45l6.29,13.35c1.79,3.8,3.34,8,3.34,8h.16s1.55-4.19,3.34-8l6.21-13.35h15.45l-18.32,32.77v22.75h-13.59v-22.75Z"/>
    </g>
    <g class="cls-8">
      <g class="cls-11">
        <polygon class="cls-6" points="223.13 161.33 219.91 264.65 263.49 204.92 323.22 251.73 376.49 359.89 449.13 382.49 453.97 685.97 489.49 531 533.07 616.56 536.3 432.53 623.47 484.19 428.15 198.46 287.71 146.81 223.13 161.33"/>
        <g class="cls-10">
          <g class="cls-12">
            <g class="cls-9">
              <polygon class="cls-3" points="223.13 161.33 219.91 264.65 263.49 204.92 323.22 251.73 376.49 359.89 449.13 382.49 453.97 685.97 489.49 531 533.07 616.56 536.3 432.53 623.47 484.19 428.15 198.46 287.71 146.81 223.13 161.33"/>
            </g>
          </g>
        </g>
      </g>
    </g>
  </g>
  <circle class="cls-2" cx="405.5" cy="496.38" r="405"/>
</svg>
