<svg xmlns="http://www.w3.org/2000/svg" width="3800" height="2400" viewBox="0 0 3800 2400" version="1.1"><path d="M 800 400 L 800 800 700 800 L 600 800 600 900 L 600 1000 500 1000 L 400 1000 400 1200 L 400 1400 500 1400 L 600 1400 600 1500 L 600 1600 900 1600 L 1200 1600 1200 1500 L 1200 1400 1300 1400 L 1400 1400 1400 1200 L 1400 1000 1300 1000 L 1200 1000 1200 900 L 1200 800 1100 800 L 1000 800 1000 700 L 1000 600 1100 600 L 1200 600 1200 500 L 1200 400 1100 400 L 1000 400 1000 300 L 1000 200 1100 200 L 1200 200 1200 100 L 1200 0 1000 0 L 800 0 800 400 M 600 1200 L 600 1400 900 1400 L 1200 1400 1200 1200 L 1200 1000 900 1000 L 600 1000 600 1200" stroke="none" fill="#af8d57" fill-rule="evenodd"/><path d="M 1600 1500 L 1600 1600 1700 1600 L 1800 1600 1800 1700 L 1800 1800 1700 1800 L 1600 1800 1600 1900 L 1600 2000 2000 2000 L 2400 2000 2400 1700 L 2400 1400 2000 1400 L 1600 1400 1600 1500 M 2000 1700 L 2000 1800 2100 1800 L 2200 1800 2200 1700 L 2200 1600 2100 1600 L 2000 1600 2000 1700" stroke="none" fill="#c86c67" fill-rule="evenodd"/><path d="M 2000 1300 L 2000 1400 2100 1400 L 2200 1400 2200 1300 L 2200 1200 2100 1200 L 2000 1200 2000 1300 M 2600 1300 L 2600 1400 2700 1400 L 2800 1400 2800 1300 L 2800 1200 2700 1200 L 2600 1200 2600 1300" stroke="none" fill="#1f1e1f" fill-rule="evenodd"/><path d="M 1800 1000 L 1800 1400 1900 1400 L 2000 1400 2000 1200 L 2000 1000 2400 1000 L 2800 1000 2800 1100 L 2800 1200 3000 1200 L 3200 1200 3200 1400 L 3200 1600 3300 1600 L 3400 1600 3400 1700 L 3400 1800 3300 1800 L 3200 1800 3200 1900 L 3200 2000 3100 2000 L 3000 2000 3000 2100 L 3000 2200 3100 2200 L 3200 2200 3200 2300 L 3200 2400 3300 2400 L 3400 2400 3400 2100 L 3400 1800 3500 1800 L 3600 1800 3600 1900 L 3600 2000 3700 2000 L 3800 2000 3800 1900 L 3800 1800 3700 1800 L 3600 1800 3600 1700 L 3600 1600 3500 1600 L 3400 1600 3400 1400 L 3400 1200 3300 1200 L 3200 1200 3200 1100 L 3200 1000 3100 1000 L 3000 1000 3000 800 L 3000 600 2900 600 L 2800 600 2800 700 L 2800 800 2400 800 L 2000 800 2000 700 L 2000 600 1900 600 L 1800 600 1800 1000 M 1600 1700 L 1600 1800 1700 1800 L 1800 1800 1800 1700 L 1800 1600 1700 1600 L 1600 1600 1600 1700 M 2000 1700 L 2000 1800 2100 1800 L 2200 1800 2200 1700 L 2200 1600 2100 1600 L 2000 1600 2000 1700 M 1800 2100 L 1800 2200 1900 2200 L 2000 2200 2000 2300 L 2000 2400 2100 2400 L 2200 2400 2200 2300 L 2200 2200 2400 2200 L 2600 2200 2600 2300 L 2600 2400 2700 2400 L 2800 2400 2800 2200 L 2800 2000 2300 2000 L 1800 2000 1800 2100" stroke="none" fill="#9c5c54" fill-rule="evenodd"/><path d="M 2000 1100 L 2000 1200 2100 1200 L 2200 1200 2200 1300 L 2200 1400 2300 1400 L 2400 1400 2400 1700 L 2400 2000 2600 2000 L 2800 2000 2800 2200 L 2800 2400 2900 2400 L 3000 2400 3000 2200 L 3000 2000 3100 2000 L 3200 2000 3200 1900 L 3200 1800 3300 1800 L 3400 1800 3400 1700 L 3400 1600 3300 1600 L 3200 1600 3200 1400 L 3200 1200 3000 1200 L 2800 1200 2800 1100 L 2800 1000 2400 1000 L 2000 1000 2000 1100 M 2600 1300 L 2600 1400 2700 1400 L 2800 1400 2800 1300 L 2800 1200 2700 1200 L 2600 1200 2600 1300 M 2200 2300 L 2200 2400 2300 2400 L 2400 2400 2400 2300 L 2400 2200 2300 2200 L 2200 2200 2200 2300" stroke="none" fill="#c98572" fill-rule="evenodd"/></svg>